# xmcd
#
# Track frame offsets: 
#        150
#        18581
#        33389
#        50830
#        73290
#        79564
#        119191
#        148936
#        162280
#        197991
#        211069
#        224174
#        255828
#        284804
#        307280
#
# Disc length: 4561 seconds
#
# Revision: 0
# Processed by: cddbd v1.5.2PL0 Copyright (c) Steve Scherf et al.
# Submitted via: ExactAudioCopy v0.99pb5
#
DISCID=fd11cf0f
DTITLE=On the Road 1 - Back to the Roots
DYEAR=2005
DGENRE=Blues
TTITLE0=Delta Blues
TTITLE1=Jesus on the mainline/Down by the riverside
TTITLE2=Dueling Banjos
TTITLE3=Maman n'veut pas
TTITLE4=John the revalator
TTITLE5=Crawling kingsnake
TTITLE6=Before you accuse me
TTITLE7=Sunny
TTITLE8=Bad luck card
TTITLE9=I can't be satisfied
TTITLE10=That allright mama
TTITLE11=Key to the highway
TTITLE12=Sweet home Chicago
TTITLE13=Can't that stuff no more
TTITLE14=Hans olson Jam's Boogie
EXTD=
EXTT0=
EXTT1=
EXTT2=
EXTT3=
EXTT4=
EXTT5=
EXTT6=
EXTT7=
EXTT8=
EXTT9=
EXTT10=
EXTT11=
EXTT12=
EXTT13=
EXTT14=
PLAYORDER=
